<?xml version="1.0" encoding="UTF-8" standalone="no"?>
<!DOCTYPE svg PUBLIC "-//W3C//DTD SVG 1.1//EN"
 "http://www.w3.org/Graphics/SVG/1.1/DTD/svg11.dtd">
<!-- Generated by graphviz version 2.42.4 (0)
 -->
<!-- Title: ER Pages: 1 -->
<svg width="1911pt" height="566pt"
 viewBox="0.00 0.00 1911.40 566.40" xmlns="http://www.w3.org/2000/svg" xmlns:xlink="http://www.w3.org/1999/xlink">
<g id="graph0" class="graph" transform="scale(1 1) rotate(0) translate(25.2 541.2)">
<title>ER</title>
<polygon fill="#f7f5ef" stroke="transparent" points="-25.2,25.2 -25.2,-541.2 1886.2,-541.2 1886.2,25.2 -25.2,25.2"/>
<text text-anchor="middle" x="930.5" y="-496" font-family="DejaVu Sans" font-size="20.00">Financial data relationships</text>
<text text-anchor="middle" x="930.5" y="-474" font-family="DejaVu Sans" font-size="20.00">Selected relationships; migrations remain the complete schema authority</text>
<!-- users -->
<g id="node1" class="node">
<title>users</title>
<polygon fill="white" stroke="#bed0d8" points="0,-255.5 0,-307.5 121,-307.5 121,-255.5 0,-255.5"/>
<text text-anchor="middle" x="60.5" y="-291.7" font-family="DejaVu Sans" font-size="11.00">app_users</text>
<polyline fill="none" stroke="#bed0d8" points="0,-281.5 121,-281.5 "/>
<text text-anchor="middle" x="60.5" y="-265.7" font-family="DejaVu Sans" font-size="11.00">id · role · enabled</text>
</g>
<!-- accounts -->
<g id="node2" class="node">
<title>accounts</title>
<polygon fill="white" stroke="#bed0d8" points="259,-321.5 259,-373.5 446,-373.5 446,-321.5 259,-321.5"/>
<text text-anchor="middle" x="352.5" y="-357.7" font-family="DejaVu Sans" font-size="11.00">accounts</text>
<polyline fill="none" stroke="#bed0d8" points="259,-347.5 446,-347.5 "/>
<text text-anchor="middle" x="352.5" y="-331.7" font-family="DejaVu Sans" font-size="11.00">id · owner_id · currency · kind</text>
</g>
<!-- users&#45;&gt;accounts -->
<g id="edge1" class="edge">
<title>users&#45;&gt;accounts</title>
<path fill="none" stroke="#347080" d="M121.24,-295.1C158.08,-303.48 206.31,-314.46 249.11,-324.2"/>
<polygon fill="#347080" stroke="#347080" points="248.47,-327.64 259,-326.45 250.03,-320.82 248.47,-327.64"/>
<text text-anchor="middle" x="173.5" y="-317.5" font-family="DejaVu Sans" font-size="10.00">owns many</text>
</g>
<!-- payments -->
<g id="node6" class="node">
<title>payments</title>
<polygon fill="white" stroke="#bed0d8" points="624.5,-202.5 624.5,-306.5 846.5,-306.5 846.5,-202.5 624.5,-202.5"/>
<text text-anchor="middle" x="735.5" y="-290.7" font-family="DejaVu Sans" font-size="11.00">payments</text>
<polyline fill="none" stroke="#bed0d8" points="624.5,-280.5 846.5,-280.5 "/>
<text text-anchor="middle" x="735.5" y="-264.7" font-family="DejaVu Sans" font-size="11.00">id · actor/source/destination</text>
<polyline fill="none" stroke="#bed0d8" points="624.5,-254.5 846.5,-254.5 "/>
<text text-anchor="middle" x="735.5" y="-238.7" font-family="DejaVu Sans" font-size="11.00">state · journal_id</text>
<polyline fill="none" stroke="#bed0d8" points="624.5,-228.5 846.5,-228.5 "/>
<text text-anchor="middle" x="735.5" y="-212.7" font-family="DejaVu Sans" font-size="11.00">refunded_minor · reversed · version</text>
</g>
<!-- users&#45;&gt;payments -->
<g id="edge5" class="edge">
<title>users&#45;&gt;payments</title>
<path fill="none" stroke="#347080" d="M121.22,-279.1C231.49,-274.68 468.99,-265.15 613.94,-259.34"/>
<polygon fill="#347080" stroke="#347080" points="614.36,-262.82 624.21,-258.92 614.08,-255.83 614.36,-262.82"/>
<text text-anchor="middle" x="352.5" y="-277.5" font-family="DejaVu Sans" font-size="10.00">actor</text>
</g>
<!-- replay -->
<g id="node9" class="node">
<title>replay</title>
<polygon fill="white" stroke="#bed0d8" points="226,-166.5 226,-244.5 479,-244.5 479,-166.5 226,-166.5"/>
<text text-anchor="middle" x="352.5" y="-228.7" font-family="DejaVu Sans" font-size="11.00">idempotency_records</text>
<polyline fill="none" stroke="#bed0d8" points="226,-218.5 479,-218.5 "/>
<text text-anchor="middle" x="352.5" y="-202.7" font-family="DejaVu Sans" font-size="11.00">actor + kind + parent + key</text>
<polyline fill="none" stroke="#bed0d8" points="226,-192.5 479,-192.5 "/>
<text text-anchor="middle" x="352.5" y="-176.7" font-family="DejaVu Sans" font-size="11.00">fingerprint · status · response · operation</text>
</g>
<!-- users&#45;&gt;replay -->
<g id="edge11" class="edge">
<title>users&#45;&gt;replay</title>
<path fill="none" stroke="#347080" d="M121.02,-261.79C127.07,-259.94 133.15,-258.14 139,-256.5 163.78,-249.54 190.34,-242.69 216.01,-236.38"/>
<polygon fill="#347080" stroke="#347080" points="216.92,-239.76 225.8,-233.98 215.26,-232.96 216.92,-239.76"/>
<text text-anchor="middle" x="173.5" y="-259.5" font-family="DejaVu Sans" font-size="10.00">owner&#45;scoped</text>
</g>
<!-- balances -->
<g id="node3" class="node">
<title>balances</title>
<polygon fill="white" stroke="#bed0d8" points="612,-385.5 612,-463.5 859,-463.5 859,-385.5 612,-385.5"/>
<text text-anchor="middle" x="735.5" y="-447.7" font-family="DejaVu Sans" font-size="11.00">account_balances</text>
<polyline fill="none" stroke="#bed0d8" points="612,-437.5 859,-437.5 "/>
<text text-anchor="middle" x="735.5" y="-421.7" font-family="DejaVu Sans" font-size="11.00">account_id PK/FK</text>
<polyline fill="none" stroke="#bed0d8" points="612,-411.5 859,-411.5 "/>
<text text-anchor="middle" x="735.5" y="-395.7" font-family="DejaVu Sans" font-size="11.00">posted_minor · reserved_minor · version</text>
</g>
<!-- accounts&#45;&gt;balances -->
<g id="edge2" class="edge">
<title>accounts&#45;&gt;balances</title>
<path fill="none" stroke="#347080" d="M446.22,-366.24C492.98,-375.69 550.54,-387.32 601.89,-397.7"/>
<polygon fill="#347080" stroke="#347080" points="601.24,-401.14 611.74,-399.69 602.63,-394.28 601.24,-401.14"/>
<text text-anchor="middle" x="545.5" y="-397.5" font-family="DejaVu Sans" font-size="10.00">one</text>
</g>
<!-- entries -->
<g id="node5" class="node">
<title>entries</title>
<polygon fill="white" stroke="#bed0d8" points="1665,-283.5 1665,-361.5 1861,-361.5 1861,-283.5 1665,-283.5"/>
<text text-anchor="middle" x="1763" y="-345.7" font-family="DejaVu Sans" font-size="11.00">journal_entries</text>
<polyline fill="none" stroke="#bed0d8" points="1665,-335.5 1861,-335.5 "/>
<text text-anchor="middle" x="1763" y="-319.7" font-family="DejaVu Sans" font-size="11.00">journal_id · account_id</text>
<polyline fill="none" stroke="#bed0d8" points="1665,-309.5 1861,-309.5 "/>
<text text-anchor="middle" x="1763" y="-293.7" font-family="DejaVu Sans" font-size="11.00">currency · side · amount_minor</text>
</g>
<!-- accounts&#45;&gt;entries -->
<g id="edge3" class="edge">
<title>accounts&#45;&gt;entries</title>
<path fill="none" stroke="#347080" d="M446.26,-350.92C523.4,-353.46 636.08,-356.5 734.5,-356.5 734.5,-356.5 734.5,-356.5 1438,-356.5 1510.61,-356.5 1591.88,-347.95 1654.86,-339.42"/>
<polygon fill="#347080" stroke="#347080" points="1655.38,-342.89 1664.81,-338.06 1654.42,-335.95 1655.38,-342.89"/>
<text text-anchor="middle" x="1086.5" y="-359.5" font-family="DejaVu Sans" font-size="10.00">many</text>
</g>
<!-- accounts&#45;&gt;payments -->
<g id="edge6" class="edge">
<title>accounts&#45;&gt;payments</title>
<path fill="none" stroke="#347080" d="M446.08,-329.09C490.92,-319.76 545.45,-307.82 594,-295.5 600.62,-293.82 607.4,-292.04 614.23,-290.2"/>
<polygon fill="#347080" stroke="#347080" points="615.53,-293.48 624.26,-287.47 613.69,-286.72 615.53,-293.48"/>
<text text-anchor="middle" x="545.5" y="-319.5" font-family="DejaVu Sans" font-size="10.00">source / destination</text>
</g>
<!-- journals -->
<g id="node4" class="node">
<title>journals</title>
<polygon fill="white" stroke="#bed0d8" points="1357,-249.5 1357,-327.5 1517,-327.5 1517,-249.5 1357,-249.5"/>
<text text-anchor="middle" x="1437" y="-311.7" font-family="DejaVu Sans" font-size="11.00">journals</text>
<polyline fill="none" stroke="#bed0d8" points="1357,-301.5 1517,-301.5 "/>
<text text-anchor="middle" x="1437" y="-285.7" font-family="DejaVu Sans" font-size="11.00">id · operation_id UNIQUE</text>
<polyline fill="none" stroke="#bed0d8" points="1357,-275.5 1517,-275.5 "/>
<text text-anchor="middle" x="1437" y="-259.7" font-family="DejaVu Sans" font-size="11.00">kind · currency</text>
</g>
<!-- journals&#45;&gt;entries -->
<g id="edge4" class="edge">
<title>journals&#45;&gt;entries</title>
<path fill="none" stroke="#347080" d="M1517.26,-296.82C1558.62,-301.16 1609.83,-306.53 1654.69,-311.24"/>
<polygon fill="#347080" stroke="#347080" points="1654.45,-314.73 1664.76,-312.3 1655.18,-307.77 1654.45,-314.73"/>
<text text-anchor="middle" x="1591" y="-312.5" font-family="DejaVu Sans" font-size="10.00">balanced posting sides</text>
</g>
<!-- payments&#45;&gt;journals -->
<g id="edge8" class="edge">
<title>payments&#45;&gt;journals</title>
<path fill="none" stroke="#347080" d="M846.61,-268.95C888.32,-273.84 936.28,-278.75 980,-281.5 1107.19,-289.51 1254.72,-290.21 1346.72,-289.63"/>
<polygon fill="#347080" stroke="#347080" points="1346.85,-293.13 1356.83,-289.56 1346.8,-286.13 1346.85,-293.13"/>
<text text-anchor="middle" x="1086.5" y="-291.5" font-family="DejaVu Sans" font-size="10.00">optional settlement</text>
</g>
<!-- holds -->
<g id="node7" class="node">
<title>holds</title>
<polygon fill="white" stroke="#bed0d8" points="980,-194.5 980,-272.5 1193,-272.5 1193,-194.5 980,-194.5"/>
<text text-anchor="middle" x="1086.5" y="-256.7" font-family="DejaVu Sans" font-size="11.00">holds</text>
<polyline fill="none" stroke="#bed0d8" points="980,-246.5 1193,-246.5 "/>
<text text-anchor="middle" x="1086.5" y="-230.7" font-family="DejaVu Sans" font-size="11.00">payment_id PK/FK</text>
<polyline fill="none" stroke="#bed0d8" points="980,-220.5 1193,-220.5 "/>
<text text-anchor="middle" x="1086.5" y="-204.7" font-family="DejaVu Sans" font-size="11.00">account_id · amount_minor · state</text>
</g>
<!-- payments&#45;&gt;holds -->
<g id="edge7" class="edge">
<title>payments&#45;&gt;holds</title>
<path fill="none" stroke="#347080" d="M846.93,-247.86C886.06,-245.5 930.18,-242.85 969.74,-240.47"/>
<polygon fill="#347080" stroke="#347080" points="970.19,-243.94 979.96,-239.85 969.77,-236.96 970.19,-243.94"/>
<text text-anchor="middle" x="919.5" y="-248.5" font-family="DejaVu Sans" font-size="10.00">one reservation</text>
</g>
<!-- adjustments -->
<g id="node8" class="node">
<title>adjustments</title>
<polygon fill="white" stroke="#bed0d8" points="990.5,-97.5 990.5,-175.5 1182.5,-175.5 1182.5,-97.5 990.5,-97.5"/>
<text text-anchor="middle" x="1086.5" y="-159.7" font-family="DejaVu Sans" font-size="11.00">adjustments</text>
<polyline fill="none" stroke="#bed0d8" points="990.5,-149.5 1182.5,-149.5 "/>
<text text-anchor="middle" x="1086.5" y="-133.7" font-family="DejaVu Sans" font-size="11.00">id · payment_id · journal_id</text>
<polyline fill="none" stroke="#bed0d8" points="990.5,-123.5 1182.5,-123.5 "/>
<text text-anchor="middle" x="1086.5" y="-107.7" font-family="DejaVu Sans" font-size="11.00">kind · amount_minor · actor_id</text>
</g>
<!-- payments&#45;&gt;adjustments -->
<g id="edge9" class="edge">
<title>payments&#45;&gt;adjustments</title>
<path fill="none" stroke="#347080" d="M846.93,-217.16C889.81,-202.66 938.7,-186.14 981,-171.83"/>
<polygon fill="#347080" stroke="#347080" points="982.13,-175.15 990.48,-168.63 979.89,-168.51 982.13,-175.15"/>
<text text-anchor="middle" x="919.5" y="-209.5" font-family="DejaVu Sans" font-size="10.00">compensations</text>
</g>
<!-- outbox -->
<g id="node10" class="node">
<title>outbox</title>
<polygon fill="white" stroke="#bed0d8" points="984,-0.5 984,-78.5 1189,-78.5 1189,-0.5 984,-0.5"/>
<text text-anchor="middle" x="1086.5" y="-62.7" font-family="DejaVu Sans" font-size="11.00">outbox_events</text>
<polyline fill="none" stroke="#bed0d8" points="984,-52.5 1189,-52.5 "/>
<text text-anchor="middle" x="1086.5" y="-36.7" font-family="DejaVu Sans" font-size="11.00">event_id · aggregate_id · version</text>
<polyline fill="none" stroke="#bed0d8" points="984,-26.5 1189,-26.5 "/>
<text text-anchor="middle" x="1086.5" y="-10.7" font-family="DejaVu Sans" font-size="11.00">payload · lease · published_at</text>
</g>
<!-- payments&#45;&gt;outbox -->
<g id="edge12" class="edge">
<title>payments&#45;&gt;outbox</title>
<path fill="none" stroke="#347080" stroke-dasharray="5,2" d="M805.53,-202.37C853.17,-167.6 918.74,-122.1 980,-87.5 982.51,-86.09 985.06,-84.68 987.65,-83.28"/>
<polygon fill="#347080" stroke="#347080" points="989.35,-86.34 996.58,-78.59 986.1,-80.15 989.35,-86.34"/>
<text text-anchor="middle" x="919.5" y="-155.5" font-family="DejaVu Sans" font-size="10.00">versioned events</text>
</g>
<!-- adjustments&#45;&gt;journals -->
<g id="edge10" class="edge">
<title>adjustments&#45;&gt;journals</title>
<path fill="none" stroke="#347080" d="M1177.25,-175.64C1229.66,-198.5 1295.54,-227.24 1347.7,-249.99"/>
<polygon fill="#347080" stroke="#347080" points="1346.38,-253.23 1356.94,-254.02 1349.18,-246.81 1346.38,-253.23"/>
<text text-anchor="middle" x="1275" y="-247.5" font-family="DejaVu Sans" font-size="10.00">one new journal</text>
</g>
<!-- inbox -->
<g id="node11" class="node">
<title>inbox</title>
<polygon fill="white" stroke="#bed0d8" points="1365.5,-0.5 1365.5,-78.5 1508.5,-78.5 1508.5,-0.5 1365.5,-0.5"/>
<text text-anchor="middle" x="1437" y="-62.7" font-family="DejaVu Sans" font-size="11.00">consumer_inbox</text>
<polyline fill="none" stroke="#bed0d8" points="1365.5,-52.5 1508.5,-52.5 "/>
<text text-anchor="middle" x="1437" y="-36.7" font-family="DejaVu Sans" font-size="11.00">consumer + event_id</text>
<polyline fill="none" stroke="#bed0d8" points="1365.5,-26.5 1508.5,-26.5 "/>
<text text-anchor="middle" x="1437" y="-10.7" font-family="DejaVu Sans" font-size="11.00">durable deduplication</text>
</g>
<!-- outbox&#45;&gt;inbox -->
<g id="edge13" class="edge">
<title>outbox&#45;&gt;inbox</title>
<path fill="none" stroke="#347080" stroke-dasharray="5,2" d="M1189.24,-39.5C1242.15,-39.5 1305.91,-39.5 1355.37,-39.5"/>
<polygon fill="#347080" stroke="#347080" points="1355.38,-43 1365.38,-39.5 1355.38,-36 1355.38,-43"/>
<text text-anchor="middle" x="1275" y="-42.5" font-family="DejaVu Sans" font-size="10.00">event identity, logical link</text>
</g>
</g>
</svg>
