<?xml version="1.0" encoding="utf-8" standalone="no"?>
<!DOCTYPE svg PUBLIC "-//W3C//DTD SVG 1.1//EN"
  "http://www.w3.org/Graphics/SVG/1.1/DTD/svg11.dtd">
<svg xmlns:xlink="http://www.w3.org/1999/xlink" width="1008pt" height="590.4pt" viewBox="0 0 1008 590.4" xmlns="http://www.w3.org/2000/svg" version="1.1">
 <metadata>
  <rdf:RDF xmlns:dc="http://purl.org/dc/elements/1.1/" xmlns:cc="http://creativecommons.org/ns#" xmlns:rdf="http://www.w3.org/1999/02/22-rdf-syntax-ns#">
   <cc:Work>
    <dc:type rdf:resource="http://purl.org/dc/dcmitype/StillImage"/>
    <dc:format>image/svg+xml</dc:format>
    <dc:creator>
     <cc:Agent>
      <dc:title>Matplotlib v3.10.8, https://matplotlib.org/</dc:title>
     </cc:Agent>
    </dc:creator>
   </cc:Work>
  </rdf:RDF>
 </metadata>
 <defs>
  <style type="text/css">*{stroke-linejoin: round; stroke-linecap: butt}</style>
 </defs>
 <g id="figure_1">
  <g id="patch_1">
   <path d="M 0 590.4 
L 1008 590.4 
L 1008 0 
L 0 0 
z
" style="fill: #f7f5ef"/>
  </g>
  <g id="axes_1">
   <g id="patch_2">
    <path d="M 37.176471 48.957353 
L 192.784314 48.957353 
Q 199.592157 48.957353 199.592157 50.528282 
L 199.592157 72.970127 
Q 199.592157 74.541056 192.784314 74.541056 
L 37.176471 74.541056 
Q 30.368627 74.541056 30.368627 72.970127 
L 30.368627 50.528282 
Q 30.368627 48.957353 37.176471 48.957353 
z
" clip-path="url(#pb96ff9440f)" style="fill: #ffffff; stroke: #bed0d8; stroke-linejoin: miter"/>
   </g>
   <g id="patch_3">
    <path d="M 231.686275 48.957353 
L 387.294118 48.957353 
Q 394.101961 48.957353 394.101961 50.528282 
L 394.101961 72.970127 
Q 394.101961 74.541056 387.294118 74.541056 
L 231.686275 74.541056 
Q 224.878431 74.541056 224.878431 72.970127 
L 224.878431 50.528282 
Q 224.878431 48.957353 231.686275 48.957353 
z
" clip-path="url(#pb96ff9440f)" style="fill: #ffffff; stroke: #bed0d8; stroke-linejoin: miter"/>
   </g>
   <g id="patch_4">
    <path d="M 426.196078 48.957353 
L 581.803922 48.957353 
Q 588.611765 48.957353 588.611765 50.528282 
L 588.611765 72.970127 
Q 588.611765 74.541056 581.803922 74.541056 
L 426.196078 74.541056 
Q 419.388235 74.541056 419.388235 72.970127 
L 419.388235 50.528282 
Q 419.388235 48.957353 426.196078 48.957353 
z
" clip-path="url(#pb96ff9440f)" style="fill: #ffffff; stroke: #bed0d8; stroke-linejoin: miter"/>
   </g>
   <g id="patch_5">
    <path d="M 620.705882 48.957353 
L 776.313725 48.957353 
Q 783.121569 48.957353 783.121569 50.528282 
L 783.121569 72.970127 
Q 783.121569 74.541056 776.313725 74.541056 
L 620.705882 74.541056 
Q 613.898039 74.541056 613.898039 72.970127 
L 613.898039 50.528282 
Q 613.898039 48.957353 620.705882 48.957353 
z
" clip-path="url(#pb96ff9440f)" style="fill: #ffffff; stroke: #bed0d8; stroke-linejoin: miter"/>
   </g>
   <g id="patch_6">
    <path d="M 815.215686 48.957353 
L 970.823529 48.957353 
Q 977.631373 48.957353 977.631373 50.528282 
L 977.631373 72.970127 
Q 977.631373 74.541056 970.823529 74.541056 
L 815.215686 74.541056 
Q 808.407843 74.541056 808.407843 72.970127 
L 808.407843 50.528282 
Q 808.407843 48.957353 815.215686 48.957353 
z
" clip-path="url(#pb96ff9440f)" style="fill: #ffffff; stroke: #bed0d8; stroke-linejoin: miter"/>
   </g>
   <g id="patch_7">
    <path d="M 116.977845 119.200327 
Q 212.2338 119.200327 305.812704 119.200327 
" clip-path="url(#pb96ff9440f)" style="fill: none; stroke: #347080; stroke-width: 1.5; stroke-linecap: round"/>
    <path d="M 301.012704 116.800327 
L 305.812704 119.200327 
L 301.012704 121.600327 
z
" clip-path="url(#pb96ff9440f)" style="fill: #347080; stroke: #347080; stroke-width: 1.5; stroke-linecap: round"/>
   </g>
   <g id="patch_8">
    <path d="M 311.487649 164.084016 
Q 406.743604 164.084016 500.322508 164.084016 
" clip-path="url(#pb96ff9440f)" style="fill: none; stroke: #347080; stroke-width: 1.5; stroke-linecap: round"/>
    <path d="M 495.522508 161.684016 
L 500.322508 164.084016 
L 495.522508 166.484016 
z
" clip-path="url(#pb96ff9440f)" style="fill: #347080; stroke: #347080; stroke-width: 1.5; stroke-linecap: round"/>
   </g>
   <g id="patch_9">
    <path d="M 502.002547 208.967705 
Q 406.746592 208.967705 313.167688 208.967705 
" clip-path="url(#pb96ff9440f)" style="fill: none; stroke: #347080; stroke-width: 1.5; stroke-linecap: round"/>
    <path d="M 317.967688 211.367705 
L 313.167688 208.967705 
L 317.967688 206.567705 
z
" clip-path="url(#pb96ff9440f)" style="fill: #347080; stroke: #347080; stroke-width: 1.5; stroke-linecap: round"/>
   </g>
   <g id="patch_10">
    <path d="M 307.492743 253.851395 
Q 212.236788 253.851395 118.657884 253.851395 
" clip-path="url(#pb96ff9440f)" style="fill: none; stroke: #347080; stroke-width: 1.5; stroke-linecap: round"/>
    <path d="M 123.457884 256.251395 
L 118.657884 253.851395 
L 123.457884 251.451395 
z
" clip-path="url(#pb96ff9440f)" style="fill: #347080; stroke: #347080; stroke-width: 1.5; stroke-linecap: round"/>
   </g>
   <g id="patch_11">
    <path d="M 505.997453 298.735084 
Q 601.253408 298.735084 694.832312 298.735084 
" clip-path="url(#pb96ff9440f)" style="fill: none; stroke: #347080; stroke-width: 1.5; stroke-linecap: round"/>
    <path d="M 690.032312 296.335084 
L 694.832312 298.735084 
L 690.032312 301.135084 
z
" clip-path="url(#pb96ff9440f)" style="fill: #347080; stroke: #347080; stroke-width: 1.5; stroke-linecap: round"/>
   </g>
   <g id="patch_12">
    <path d="M 700.507257 343.618773 
Q 795.763212 343.618773 889.342116 343.618773 
" clip-path="url(#pb96ff9440f)" style="fill: none; stroke: #347080; stroke-width: 1.5; stroke-linecap: round"/>
    <path d="M 884.542116 341.218773 
L 889.342116 343.618773 
L 884.542116 346.018773 
z
" clip-path="url(#pb96ff9440f)" style="fill: #347080; stroke: #347080; stroke-width: 1.5; stroke-linecap: round"/>
   </g>
   <g id="patch_13">
    <path d="M 891.022155 388.502462 
Q 698.510581 388.502462 507.676059 388.502462 
" clip-path="url(#pb96ff9440f)" style="fill: none; stroke: #347080; stroke-width: 1.5; stroke-linecap: round"/>
    <path d="M 512.476059 390.902462 
L 507.676059 388.502462 
L 512.476059 386.102462 
z
" clip-path="url(#pb96ff9440f)" style="fill: #347080; stroke: #347080; stroke-width: 1.5; stroke-linecap: round"/>
   </g>
   <g id="patch_14">
    <path d="M 891.022155 433.386152 
Q 795.7662 433.386152 702.187296 433.386152 
" clip-path="url(#pb96ff9440f)" style="fill: none; stroke: #347080; stroke-width: 1.5; stroke-linecap: round"/>
    <path d="M 706.987296 435.786152 
L 702.187296 433.386152 
L 706.987296 430.986152 
z
" clip-path="url(#pb96ff9440f)" style="fill: #347080; stroke: #347080; stroke-width: 1.5; stroke-linecap: round"/>
   </g>
   <g id="patch_15">
    <path d="M 116.977845 478.269841 
Q 212.2338 478.269841 305.812704 478.269841 
" clip-path="url(#pb96ff9440f)" style="fill: none; stroke: #347080; stroke-width: 1.5; stroke-linecap: round"/>
    <path d="M 301.012704 475.869841 
L 305.812704 478.269841 
L 301.012704 480.669841 
z
" clip-path="url(#pb96ff9440f)" style="fill: #347080; stroke: #347080; stroke-width: 1.5; stroke-linecap: round"/>
   </g>
   <g id="patch_16">
    <path d="M 307.492743 523.15353 
Q 212.236788 523.15353 118.657884 523.15353 
" clip-path="url(#pb96ff9440f)" style="fill: none; stroke: #347080; stroke-width: 1.5; stroke-linecap: round"/>
    <path d="M 123.457884 525.55353 
L 118.657884 523.15353 
L 123.457884 520.75353 
z
" clip-path="url(#pb96ff9440f)" style="fill: #347080; stroke: #347080; stroke-width: 1.5; stroke-linecap: round"/>
   </g>
   <g id="line2d_1">
    <path d="M 114.980392 75.214311 
L 114.980392 546.493049 
" clip-path="url(#pb96ff9440f)" style="fill: none; stroke-dasharray: 3.7,1.6; stroke-dashoffset: 0; stroke: #bfd0d8"/>
   </g>
   <g id="line2d_2">
    <path d="M 309.490196 75.214311 
L 309.490196 546.493049 
" clip-path="url(#pb96ff9440f)" style="fill: none; stroke-dasharray: 3.7,1.6; stroke-dashoffset: 0; stroke: #bfd0d8"/>
   </g>
   <g id="line2d_3">
    <path d="M 504 75.214311 
L 504 546.493049 
" clip-path="url(#pb96ff9440f)" style="fill: none; stroke-dasharray: 3.7,1.6; stroke-dashoffset: 0; stroke: #bfd0d8"/>
   </g>
   <g id="line2d_4">
    <path d="M 698.509804 75.214311 
L 698.509804 546.493049 
" clip-path="url(#pb96ff9440f)" style="fill: none; stroke-dasharray: 3.7,1.6; stroke-dashoffset: 0; stroke: #bfd0d8"/>
   </g>
   <g id="line2d_5">
    <path d="M 893.019608 75.214311 
L 893.019608 546.493049 
" clip-path="url(#pb96ff9440f)" style="fill: none; stroke-dasharray: 3.7,1.6; stroke-dashoffset: 0; stroke: #bfd0d8"/>
   </g>
   <g id="text_1">
    <text style="font-weight: 700; font-size: 19px; font-family: 'DejaVu Sans', 'Bitstream Vera Sans', 'Computer Modern Sans Serif', 'Lucida Grande', 'Verdana', 'Geneva', 'Lucid', 'Arial', 'Helvetica', 'Avant Garde', sans-serif; text-anchor: middle; fill: #17324a" x="504" y="24.944579" transform="rotate(-0 504 24.944579)">Normal asynchronous settlement</text>
   </g>
   <g id="text_2">
    <text style="font-weight: 700; font-size: 11px; font-family: 'DejaVu Sans', 'Bitstream Vera Sans', 'Computer Modern Sans Serif', 'Lucida Grande', 'Verdana', 'Geneva', 'Lucid', 'Arial', 'Helvetica', 'Avant Garde', sans-serif; text-anchor: middle; fill: #17324a" x="114.980392" y="64.784517" transform="rotate(-0 114.980392 64.784517)">Browser</text>
   </g>
   <g id="text_3">
    <text style="font-weight: 700; font-size: 11px; font-family: 'DejaVu Sans', 'Bitstream Vera Sans', 'Computer Modern Sans Serif', 'Lucida Grande', 'Verdana', 'Geneva', 'Lucid', 'Arial', 'Helvetica', 'Avant Garde', sans-serif; text-anchor: middle; fill: #17324a" x="309.490196" y="64.784517" transform="rotate(-0 309.490196 64.784517)">API</text>
   </g>
   <g id="text_4">
    <text style="font-weight: 700; font-size: 11px; font-family: 'DejaVu Sans', 'Bitstream Vera Sans', 'Computer Modern Sans Serif', 'Lucida Grande', 'Verdana', 'Geneva', 'Lucid', 'Arial', 'Helvetica', 'Avant Garde', sans-serif; text-anchor: middle; fill: #17324a" x="504" y="64.69858" transform="rotate(-0 504 64.69858)">PostgreSQL</text>
   </g>
   <g id="text_5">
    <text style="font-weight: 700; font-size: 11px; font-family: 'DejaVu Sans', 'Bitstream Vera Sans', 'Computer Modern Sans Serif', 'Lucida Grande', 'Verdana', 'Geneva', 'Lucid', 'Arial', 'Helvetica', 'Avant Garde', sans-serif; text-anchor: middle; fill: #17324a" x="698.509804" y="64.784517" transform="rotate(-0 698.509804 64.784517)">Publisher / broker</text>
   </g>
   <g id="text_6">
    <text style="font-weight: 700; font-size: 11px; font-family: 'DejaVu Sans', 'Bitstream Vera Sans', 'Computer Modern Sans Serif', 'Lucida Grande', 'Verdana', 'Geneva', 'Lucid', 'Arial', 'Helvetica', 'Avant Garde', sans-serif; text-anchor: middle; fill: #17324a" x="893.019608" y="64.784517" transform="rotate(-0 893.019608 64.784517)">Worker</text>
   </g>
   <g id="text_7">
    <g id="patch_17">
     <path d="M 122.465763 115.814284 
L 302.004825 115.814284 
L 302.004825 102.136159 
L 122.465763 102.136159 
z
" style="fill: #f7f5ef"/>
    </g>
    <text style="font-size: 10px; font-family: 'DejaVu Sans', 'Bitstream Vera Sans', 'Computer Modern Sans Serif', 'Lucida Grande', 'Verdana', 'Geneva', 'Lucid', 'Arial', 'Helvetica', 'Avant Garde', sans-serif; text-anchor: middle; fill: #17324a" x="212.235294" y="111.734597" transform="rotate(-0 212.235294 111.734597)">1. Payment command + stable key</text>
   </g>
   <g id="text_8">
    <g id="patch_18">
     <path d="M 292.302911 160.697973 
L 521.187286 160.697973 
L 521.187286 135.822036 
L 292.302911 135.822036 
z
" style="fill: #f7f5ef"/>
    </g>
    <text style="font-size: 10px; font-family: 'DejaVu Sans', 'Bitstream Vera Sans', 'Computer Modern Sans Serif', 'Lucida Grande', 'Verdana', 'Geneva', 'Lucid', 'Arial', 'Helvetica', 'Avant Garde', sans-serif; fill: #17324a" transform="translate(294.302911 145.420473)">2. Atomic acceptance: payment, hold, replay</text>
    <text style="font-size: 10px; font-family: 'DejaVu Sans', 'Bitstream Vera Sans', 'Computer Modern Sans Serif', 'Lucida Grande', 'Verdana', 'Geneva', 'Lucid', 'Arial', 'Helvetica', 'Avant Garde', sans-serif; fill: #17324a" transform="translate(348.463848 156.618286)">outcome, audit, outbox</text>
   </g>
   <g id="text_9">
    <g id="patch_19">
     <path d="M 353.952129 205.581663 
L 459.538067 205.581663 
L 459.538067 191.903538 
L 353.952129 191.903538 
z
" style="fill: #f7f5ef"/>
    </g>
    <text style="font-size: 10px; font-family: 'DejaVu Sans', 'Bitstream Vera Sans', 'Computer Modern Sans Serif', 'Lucida Grande', 'Verdana', 'Geneva', 'Lucid', 'Arial', 'Helvetica', 'Avant Garde', sans-serif; text-anchor: middle; fill: #17324a" x="406.745098" y="201.501975" transform="rotate(-0 406.745098 201.501975)">3. Commit succeeds</text>
   </g>
   <g id="text_10">
    <g id="patch_20">
     <path d="M 93.690763 250.465352 
L 330.779825 250.465352 
L 330.779825 236.787227 
L 93.690763 236.787227 
z
" style="fill: #f7f5ef"/>
    </g>
    <text style="font-size: 10px; font-family: 'DejaVu Sans', 'Bitstream Vera Sans', 'Computer Modern Sans Serif', 'Lucida Grande', 'Verdana', 'Geneva', 'Lucid', 'Arial', 'Helvetica', 'Avant Garde', sans-serif; text-anchor: middle; fill: #17324a" x="212.235294" y="246.385664" transform="rotate(-0 212.235294 246.385664)">4. 202 PENDING; acceptance is not settlement</text>
   </g>
   <g id="text_11">
    <g id="patch_21">
     <path d="M 489.418183 295.349041 
L 713.091621 295.349041 
L 713.091621 270.473104 
L 489.418183 270.473104 
z
" style="fill: #f7f5ef"/>
    </g>
    <text style="font-size: 10px; font-family: 'DejaVu Sans', 'Bitstream Vera Sans', 'Computer Modern Sans Serif', 'Lucida Grande', 'Verdana', 'Geneva', 'Lucid', 'Arial', 'Helvetica', 'Avant Garde', sans-serif; fill: #17324a" transform="translate(491.418183 280.071541)">5. Committed event claimed, published and</text>
    <text style="font-size: 10px; font-family: 'DejaVu Sans', 'Bitstream Vera Sans', 'Computer Modern Sans Serif', 'Lucida Grande', 'Verdana', 'Geneva', 'Lucid', 'Arial', 'Helvetica', 'Avant Garde', sans-serif; fill: #17324a" transform="translate(576.039277 291.269354)">confirmed</text>
   </g>
   <g id="text_12">
    <g id="patch_22">
     <path d="M 733.087362 340.23273 
L 858.44205 340.23273 
L 858.44205 326.554605 
L 733.087362 326.554605 
z
" style="fill: #f7f5ef"/>
    </g>
    <text style="font-size: 10px; font-family: 'DejaVu Sans', 'Bitstream Vera Sans', 'Computer Modern Sans Serif', 'Lucida Grande', 'Verdana', 'Geneva', 'Lucid', 'Arial', 'Helvetica', 'Avant Garde', sans-serif; text-anchor: middle; fill: #17324a" x="795.764706" y="336.153043" transform="rotate(-0 795.764706 336.153043)">6. Deliver durable event</text>
   </g>
   <g id="text_13">
    <g id="patch_23">
     <path d="M 576.510585 385.11642 
L 820.509023 385.11642 
L 820.509023 360.240482 
L 576.510585 360.240482 
z
" style="fill: #f7f5ef"/>
    </g>
    <text style="font-size: 10px; font-family: 'DejaVu Sans', 'Bitstream Vera Sans', 'Computer Modern Sans Serif', 'Lucida Grande', 'Verdana', 'Geneva', 'Lucid', 'Arial', 'Helvetica', 'Avant Garde', sans-serif; fill: #17324a" transform="translate(578.510585 369.83892)">7. Lock payment; inbox + hold + ledger + state</text>
    <text style="font-size: 10px; font-family: 'DejaVu Sans', 'Bitstream Vera Sans', 'Computer Modern Sans Serif', 'Lucida Grande', 'Verdana', 'Geneva', 'Lucid', 'Arial', 'Helvetica', 'Avant Garde', sans-serif; fill: #17324a" transform="translate(679.611366 381.036732)">commit</text>
   </g>
   <g id="text_14">
    <g id="patch_24">
     <path d="M 731.231112 430.000109 
L 860.2983 430.000109 
L 860.2983 416.321984 
L 731.231112 416.321984 
z
" style="fill: #f7f5ef"/>
    </g>
    <text style="font-size: 10px; font-family: 'DejaVu Sans', 'Bitstream Vera Sans', 'Computer Modern Sans Serif', 'Lucida Grande', 'Verdana', 'Geneva', 'Lucid', 'Arial', 'Helvetica', 'Avant Garde', sans-serif; text-anchor: middle; fill: #17324a" x="795.764706" y="425.920421" transform="rotate(-0 795.764706 425.920421)">8. ACK only after commit</text>
   </g>
   <g id="text_15">
    <g id="patch_25">
     <path d="M 111.354044 474.883798 
L 313.116544 474.883798 
L 313.116544 461.205673 
L 111.354044 461.205673 
z
" style="fill: #f7f5ef"/>
    </g>
    <text style="font-size: 10px; font-family: 'DejaVu Sans', 'Bitstream Vera Sans', 'Computer Modern Sans Serif', 'Lucida Grande', 'Verdana', 'Geneva', 'Lucid', 'Arial', 'Helvetica', 'Avant Garde', sans-serif; text-anchor: middle; fill: #17324a" x="212.235294" y="470.804111" transform="rotate(-0 212.235294 470.804111)">9. Read authoritative payment / receipt</text>
   </g>
   <g id="text_16">
    <g id="patch_26">
     <path d="M 93.542325 519.767487 
L 330.928263 519.767487 
L 330.928263 506.089362 
L 93.542325 506.089362 
z
" style="fill: #f7f5ef"/>
    </g>
    <text style="font-size: 10px; font-family: 'DejaVu Sans', 'Bitstream Vera Sans', 'Computer Modern Sans Serif', 'Lucida Grande', 'Verdana', 'Geneva', 'Lucid', 'Arial', 'Helvetica', 'Avant Garde', sans-serif; text-anchor: middle; fill: #17324a" x="212.235294" y="515.6878" transform="rotate(-0 212.235294 515.6878)">10. SETTLED with immutable journal reference</text>
   </g>
   <g id="text_17">
    <text style="font-size: 9px; font-family: 'DejaVu Sans', 'Bitstream Vera Sans', 'Computer Modern Sans Serif', 'Lucida Grande', 'Verdana', 'Geneva', 'Lucid', 'Arial', 'Helvetica', 'Avant Garde', sans-serif; text-anchor: middle; fill: #526d79" x="504" y="566.690709" transform="rotate(-0 504 566.690709)">Synthetic money only • Source-derived behavior; this figure is not additional test evidence</text>
   </g>
  </g>
 </g>
 <defs>
  <clipPath id="pb96ff9440f">
   <rect x="8" y="12.377146" width="992" height="570.022854"/>
  </clipPath>
 </defs>
</svg>
